Patient4_TMGait_0pt4_03_left_16_EMG.mot
version=1
nRows=29
nColumns=33
inDegrees=no
endheader
time	1LAddLong	2LGlutMax	3LGlutMed	4LIliopsoas	5LSemiMemb	6LBicFemLong	7LRecFem	8LVastMed	9LVastLat	10LGasMed	11LTibAnt	12lTibPost	13LPeroneusLong	14LSol	15LExtDigLong	16LFlexDigLong	17RAddLong	18RGlutMax	19RGlutMed	20RIliopsoas	21RSemiMemb	22RBicFemLong	23RRecFem	24RVastMed	25RVastLat	26RGasMed	27RTibAnt	28RTibPost	29RPeroneusLong	30RSol	31RExtDigLong	32RFlexDigLong
22.18	0.005798	0.17761	-0.03479	0.00885	-0.00412	-0.073853	-0.028687	0.005341	0.15259	-0.02594	0.010529	-0.003662	-0.046234	-0.05249	0.018311	-0.012054	0.000305	-0.30228	-0.58701	0.065002	-0.018768	-0.00473	0.031433	-0.032043	-0.007172	-0.058289	-0.012207	-0.036774	0.27527	0.22415	0.000763	-0.002899
22.181	0.002136	0.19486	-0.016327	0.007324	0.006104	-0.071716	-0.016174	0.002136	0.14648	0.000305	-0.00351	-0.005493	-0.058746	0.022736	0.031738	-0.014801	0.007172	-0.36087	-0.2269	0.026245	-0.011139	0.00351	0.046844	-0.045624	-0.017395	-0.029907	-0.019989	-0.037994	0.18158	0.38162	-0.004425	-0.00412
22.182	0.006256	0.17716	-0.017548	0.003052	-0.002899	-0.033112	-0.035858	0.003662	0.13916	-0.012207	0.013275	-0.001678	-0.054932	-0.021973	0.028839	-0.013733	0.001984	-0.35782	0.25177	-0.033417	-0.023956	0.032806	0.016632	-0.059509	-0.011444	-0.015259	-0.036621	-0.017548	0.087433	0.20905	-0.00061	-0.006714
22.183	0.00412	0.17822	-0.009155	0.002899	-0.012817	-0.031738	0.002747	-0.00473	0.12924	-0.039978	0.004425	-0.005646	-0.042877	-0.043335	-0.093842	-0.013885	0.008545	-0.41321	0.69961	-0.05249	-0.007629	0.01358	0.022583	-0.16373	-0.026855	0.012207	-0.017395	0.003662	-0.21988	0.084229	-0.000305	-0.010071
22.184	0.006866	0.18265	-0.028076	0.000763	-0.005798	-0.042725	-0.017548	0.002289	0.13031	-0.012665	-0.003357	-0.005646	-0.053101	-0.083008	-0.081177	-0.020142	0.006256	-0.40741	0.858	-0.046692	-0.023956	0.005493	0.054169	-0.16251	-0.02655	0.020142	-0.027771	0.010529	-0.21576	-0.11643	0.006256	-0.00946
22.185	0.004578	0.17319	-0.039368	-0.008698	0.008545	-0.032959	-0.011444	-0.007324	0.11948	-0.020294	0.00885	-0.003967	-0.055389	-0.059814	-0.013885	-0.013123	0.018005	-0.47195	0.85495	-0.023041	-0.000305	-0.002747	-0.027161	-0.086212	-0.03479	0.043945	-0.010376	0.032043	-0.10635	-0.46631	-0.002441	-0.015564
22.186	0.001831	0.14206	-0.064697	-0.016174	-0.000458	-0.008392	-0.010223	0.005646	0.1088	-0.022736	0.006866	-0.001984	-0.059509	-0.058594	0.019684	-0.018158	0.008698	-0.50705	0.41779	0.021515	-0.006409	-0.002136	0.016174	-0.086365	-0.010376	0.039368	0.027618	-0.066376	-0.085144	-0.34378	-0.002899	-0.020905
22.187	-0.00412	0.16922	-0.034027	0.009613	-0.019836	0.000153	-0.00351	0.007172	0.10635	-0.017395	0.001221	-0.001984	-0.080261	-0.072021	0.031738	-0.015106	-0.00885	-0.5159	-0.43839	0.036469	-0.021973	-0.009766	-0.031891	-0.026398	-0.034637	0.041809	0.036163	-0.29327	-0.019226	-0.001221	-0.005646	-0.007629
22.188	-0.005951	0.14618	-0.038757	0.006561	-0.028534	-0.002747	-0.017853	0.010681	0.096283	-0.019684	0.014343	0.001984	-0.075684	-0.075073	0.023193	-0.00946	-0.019989	-0.4834	-0.51773	0.052338	-0.05127	-0.00473	0.009003	-0.023651	-0.047913	0.010529	0.032501	0.093842	-0.18112	0.16174	-0.002136	-0.016174
22.189	-0.005798	0.13184	-0.042725	-0.002136	-0.028076	-0.008545	-0.015717	0.004425	0.084839	-0.027618	0.006409	-0.000916	-0.082703	-0.086517	0.019989	-0.01236	-0.014038	-0.44266	-0.35477	0.044708	-0.012054	0.022583	0.004272	-0.057678	-0.038147	-0.006714	0.00946	0.046234	-0.19531	-0.078888	-0.003204	-0.007172
22.19	-0.004883	0.13306	-0.023956	-0.002899	-0.028076	-0.003662	-0.007019	0.002594	0.082397	-0.015411	0.009155	0.002899	-0.059814	-0.083923	0.018005	0.000458	0.00946	-0.45441	0.14069	0.009766	0.040588	0.057526	0.000305	-0.069275	-0.021515	-0.020142	0.036163	0.00351	-0.35233	-0.37811	-0.002289	-0.010071
22.191	0.009918	0.15045	-0.035553	0.008545	0.016785	0.012817	-0.00885	0.000305	0.076752	-0.023499	0.006714	0.00412	-0.059052	-0.067444	0.00885	-0.008698	0.013123	-0.4245	0.41382	-0.025482	0.0354	0.004425	-0.003815	-0.031128	-0.022125	-0.022583	0.02655	0.099792	-0.26825	-0.20111	0	-0.016327
22.192	0.007935	0.14893	0.00412	0.008087	0.03418	0.01236	-0.011749	0.004883	0.071259	-0.01236	-0.004425	-0.001373	-0.059357	-0.076141	0.010529	-0.007172	0.003357	-0.37964	0.036011	-0.051575	0.019989	-0.020905	-0.022583	-0.010681	0.000305	-0.014038	0.01236	0.055237	-0.048828	0.3183	-0.002747	-0.014038
22.193	0.007019	0.12817	0.056915	0.017242	0.00412	0.011597	-0.014801	0.001221	0.077667	-0.024109	0.018311	0.004883	-0.063171	-0.050507	0.008545	-0.003357	0.000763	-0.41794	-0.62378	-0.030823	-0.036011	0.022736	-0.13138	-0.019989	0.030823	0.004425	0.078583	-0.00824	0.35721	0.31326	-0.002594	-0.011139
22.194	0.008392	0.11185	0.044556	-0.012665	0.005035	0.012665	0.002136	0.000763	0.088196	-0.019379	-0.002747	0.000458	-0.082703	-0.046387	0.011749	-0.014496	-0.016022	-0.33173	-0.26977	-0.012207	-0.029755	0.059052	-0.12482	0.020752	0.073547	-0.010681	0.1506	-0.019379	0.25436	0.32898	-0.000305	-0.012054
22.195	0.00473	0.095062	0.021667	-0.013733	0.027313	0.0177	-0.001373	0.005798	0.080872	-0.017395	0.014038	-0.001221	-0.076294	-0.037079	0.010071	-0.013123	0.007172	-0.31937	-0.1178	0.014191	-0.011749	0.052032	-0.066833	0.028992	0.032654	-0.012817	0.019836	-0.003967	-0.91431	0.13702	0.001831	0
22.196	-0.000458	0.10056	0.037384	0.002441	0.03006	0.042877	-0.00824	0.009308	0.077362	-0.018005	0.014343	0.006256	-0.08728	-0.063019	0.007324	-0.001221	0.002594	-0.33081	-0.24216	0.066528	-0.00061	0.06958	0.017395	-0.02243	0.046234	0.001373	-0.12909	-0.002594	-0.66223	0.045929	-0.002899	0
22.197	-0.005035	0.082397	-0.015106	0.006714	0.011139	0.063171	-0.013428	0.001526	0.082092	-0.009766	0.007629	0.007019	-0.053253	-0.1329	-0.003815	-0.005035	-0.00351	-0.28732	-0.31448	0.019531	0.000458	0.059509	0.027313	-0.036163	0.022736	0.001373	-0.16068	-0.006561	0.616	-0.1239	-0.003662	0.005646
22.198	-0.014648	0.10559	-0.021057	0.015411	-0.028687	0.092926	-0.014496	0.012054	0.089722	-0.020599	0.009918	0.007477	-0.051117	-0.13001	0.000458	-0.005035	0.003662	-0.20554	0.032806	-0.049744	0.011749	0.058136	-0.018158	-0.031586	0.030975	-0.009155	-0.014954	-0.01236	0.27786	-0.16586	0.001221	-0.002289
22.199	-0.022278	0.12497	-0.056763	-0.001831	-0.092773	0.089111	-0.00946	0.027161	0.093842	-0.020752	-0.021362	-0.000458	-0.06897	-0.1062	0.002594	-0.001984	0.007629	-0.11505	-0.15457	-0.024567	0.015869	0.051422	-0.038605	0.005798	0.017548	-0.010223	0.059967	-0.022125	0.60288	-0.037994	-0.003967	-0.008545
22.2	-0.024261	0.070496	-0.016632	0.013123	-0.15732	0.066833	-0.017853	0.012054	0.10696	-0.014954	-0.070953	0.007935	-0.077972	-0.089417	0.027466	0.000763	0.002899	-0.090942	-0.23804	-0.012512	0.003967	0.079041	-0.055084	-0.011139	-0.010681	-0.007935	-0.027161	-0.021667	0.57327	-0.000458	0.002136	-0.009613
22.201	-0.002136	0.055847	-0.01709	-0.000458	-0.11017	0.020142	-0.019836	-0.006104	0.12512	-0.016479	-0.04303	0.00351	-0.072632	-0.087891	0.010223	0.001984	0.011292	-0.050049	-0.22705	0.055084	-0.01358	0.067902	-0.082855	-0.022125	0.033722	-0.01236	0.024109	-0.027161	-0.22064	0.066071	-0.006561	-0.014343
22.202	0.019836	0.047302	-0.079651	-0.005341	0.000916	-0.039673	-0.038605	-0.00473	0.1442	-0.020294	-0.001678	0.006866	-0.066223	-0.10437	-0.013123	0.004883	0.000916	0.013275	0.18692	-0.031128	0.045776	0.062866	-0.096436	0.068817	0.093231	-0.009613	0.016174	0.015717	0.005951	0.000916	-0.003052	-0.012207
22.203	0.029602	0.035248	-0.042725	-0.009918	0.065613	-0.032654	-0.05661	-0.006409	0.14404	-0.03479	0.036926	0.006561	0.007172	-0.11185	-0.014343	-0.003967	-0.010376	0.001526	0.3746	-0.084229	-0.022736	0.070801	-0.08316	0.046539	0.055389	-0.020599	-0.032654	0.020294	0.26215	-0.011902	-0.010071	-0.013428
22.204	0.033569	0.027008	-0.031738	0.005646	0.091095	-0.021667	-0.03067	-0.005493	0.13626	-0.037842	0.10162	-0.001221	-0.079803	-0.076752	0.053406	0.001678	0.000458	-0.043488	-0.3244	0.001984	-0.001068	0.058441	0.027924	-0.031891	-0.002289	-0.026245	-0.018005	0.000916	-0.33936	-0.036316	-0.001526	-0.0177
22.205	0.026703	0.016785	0.001221	0.00412	0.10727	0.022278	-0.022888	-0.004272	0.13473	-0.03006	0.03067	0.006561	-0.10788	-0.079346	0.039368	0.002289	0.001373	-0.057983	-0.63553	0.015259	0.054016	0.016479	0.081177	-0.10269	-0.033112	-0.002899	-0.06073	-0.014343	1.0072	0.006714	-0.00061	-0.014343
22.206	0.018768	-0.011902	-0.03006	0.010834	0.062408	0.051117	-0.015564	-0.001678	0.13687	-0.029907	-0.028381	0.003967	-0.090027	-0.089569	0.004272	-0.005341	0.002289	0.007935	-0.37216	-0.020599	0.04425	0.048828	0.18066	-0.09552	-0.065002	0.011292	0.020142	-0.014496	-0.60516	0.084076	-0.004883	-0.011902
22.207	0.018005	-0.034943	-0.047607	0.003052	0.039063	0.056152	-0.021667	-0.000458	0.13031	-0.033722	-0.019836	0.006561	-0.089874	-0.073242	0.026703	0.007477	-0.007935	0.14069	-0.041504	0.054016	0.096893	0.012665	0.24902	-0.071564	-0.072327	0.022125	0.025787	-0.016632	-1.1082	0.046234	-0.004425	-0.005493
22.208	0.007324	-0.023193	-0.022888	-0.006714	-0.025482	0.016937	-0.019226	0.002441	0.12451	-0.026398	-0.009308	0.006866	-0.091095	-0.070801	0.06485	0.000916	0.005035	0.14496	-0.34225	0.19928	0.039368	0.003967	0.13657	-0.066376	-0.11597	-0.01236	0.05127	-0.010681	-0.68054	0.017395	0.00061	-0.007172
